<mxfile host="app.diagrams.net" modified="2021-11-07T02:08:43.085Z" agent="5.0 (Macintosh; Intel Mac OS X 10_15_7) AppleWebKit/537.36 (KHTML, like Gecko) Chrome/95.0.4638.54 Safari/537.36" etag="_DgVL3HCRPfF7Kq99Hok" version="15.7.0" type="github">
  <diagram id="in74H2_icPTvK7MEoyuS" name="Page-1">
    <mxGraphModel dx="946" dy="557" grid="1" gridSize="10" guides="1" tooltips="1" connect="1" arrows="1" fold="1" page="1" pageScale="1" pageWidth="827" pageHeight="1169" math="0" shadow="0">
      <root>
        <mxCell id="0" />
        <mxCell id="1" parent="0" />
        <mxCell id="DpZaN_eDV55fk6tWUiPg-1" value="«interface»&lt;br&gt;&lt;b&gt;Shape&lt;/b&gt;" style="html=1;" vertex="1" parent="1">
          <mxGeometry x="280" y="50" width="110" height="50" as="geometry" />
        </mxCell>
      </root>
    </mxGraphModel>
  </diagram>
</mxfile>
